<svg width="220" height="68" viewBox="0 0 220 68" fill="none" xmlns="http://www.w3.org/2000/svg">
<g clip-path="url(#clip0_1_49)">
<path d="M115.945 17.0851C115.945 19.5355 113.952 21.5095 111.478 21.5095C109.003 21.5095 107.01 19.5355 107.01 17.0851C107.01 14.6346 108.935 12.6607 111.478 12.6607C114.02 12.7287 115.945 14.7027 115.945 17.0851ZM97.5256 26.002C97.5256 26.4104 97.5256 27.0911 97.5256 27.0911C97.5256 27.0911 95.3951 24.3684 90.859 24.3684C83.3676 24.3684 77.5256 30.018 77.5256 37.8458C77.5256 45.6056 83.2988 51.3233 90.859 51.3233C95.4638 51.3233 97.5256 48.5325 97.5256 48.5325V49.6897C97.5256 50.2342 97.938 50.6426 98.4878 50.6426H104.055V25.049C104.055 25.049 98.9689 25.049 98.4878 25.049C97.938 25.049 97.5256 25.5255 97.5256 26.002ZM97.5256 42.4064C96.4947 43.9039 94.4329 45.1972 91.9586 45.1972C87.56 45.1972 84.1923 42.4745 84.1923 37.8458C84.1923 33.2172 87.56 30.4945 91.9586 30.4945C94.3641 30.4945 96.5634 31.8559 97.5256 33.2853V42.4064ZM108.179 25.049H114.776V50.6426H108.179V25.049ZM206.735 24.3684C202.199 24.3684 200.069 27.0911 200.069 27.0911V12.7287H193.471V50.6426C193.471 50.6426 198.557 50.6426 199.038 50.6426C199.587 50.6426 200 50.1662 200 49.6897V48.5325C200 48.5325 202.13 51.3233 206.667 51.3233C214.158 51.3233 220 45.6056 220 37.8458C220 30.0861 214.158 24.3684 206.735 24.3684ZM205.636 45.1291C203.093 45.1291 201.1 43.8358 200.069 42.3383V33.2172C201.1 31.8559 203.299 30.4264 205.636 30.4264C210.034 30.4264 213.402 33.1492 213.402 37.7778C213.402 42.4064 210.034 45.1291 205.636 45.1291ZM190.034 35.4635V50.7107H183.436V36.2122C183.436 31.992 182.062 30.2903 178.35 30.2903C176.357 30.2903 174.295 31.3113 172.99 32.8088V50.6426H166.392V25.049H171.615C172.165 25.049 172.577 25.5255 172.577 26.002V27.0911C174.502 25.1171 177.045 24.3684 179.587 24.3684C182.474 24.3684 184.88 25.1852 186.804 26.8188C189.141 28.7247 190.034 31.1752 190.034 35.4635ZM150.378 24.3684C145.842 24.3684 143.711 27.0911 143.711 27.0911V12.7287H137.113V50.6426C137.113 50.6426 142.199 50.6426 142.68 50.6426C143.23 50.6426 143.642 50.1662 143.642 49.6897V48.5325C143.642 48.5325 145.773 51.3233 150.309 51.3233C157.801 51.3233 163.642 45.6056 163.642 37.8458C163.711 30.0861 157.869 24.3684 150.378 24.3684ZM149.278 45.1291C146.735 45.1291 144.742 43.8358 143.711 42.3383V33.2172C144.742 31.8559 146.941 30.4264 149.278 30.4264C153.677 30.4264 157.045 33.1492 157.045 37.7778C157.045 42.4064 153.677 45.1291 149.278 45.1291ZM131.409 24.3684C133.402 24.3684 134.433 24.7087 134.433 24.7087V30.7668C134.433 30.7668 128.935 28.9289 125.498 32.8088V50.7107H118.9V25.049C118.9 25.049 123.986 25.049 124.467 25.049C125.017 25.049 125.429 25.5255 125.429 26.002V27.0911C126.667 25.6617 129.347 24.3684 131.409 24.3684ZM62.8865 48.3283C62.5428 47.5115 62.1992 46.6266 61.8555 45.8779C61.3057 44.6527 60.7559 43.4955 60.2748 42.4064L60.206 42.3383C55.4638 32.1281 50.3779 21.7818 45.017 11.5716L44.8109 11.1632C44.261 10.1421 43.7112 9.05305 43.1614 7.96396C42.4741 6.73874 41.7868 5.44545 40.6872 4.22022C38.4878 1.4975 35.3263 0 31.9586 0C28.5222 0 25.4294 1.4975 23.1614 4.08408C22.1305 5.30931 21.3744 6.6026 20.6872 7.82783C20.1373 8.91692 19.5875 10.006 19.0377 11.027L18.8315 11.4354C13.5394 21.6456 8.38475 31.992 3.64248 42.2022L3.57375 42.3383C3.09265 43.4274 2.54282 44.5846 1.993 45.8098C1.64935 46.5586 1.30571 47.3754 0.962067 48.2603C0.0685965 50.7788 -0.206318 53.1612 0.137325 55.6116C0.893339 60.7167 4.32976 65.005 9.07203 66.9109C10.859 67.6597 12.7146 68 14.639 68C15.1889 68 15.8762 67.9319 16.426 67.8639C18.694 67.5916 21.0308 66.8428 23.2988 65.5496C26.1167 63.984 28.7971 61.7377 31.8212 58.4705C34.8452 61.7377 37.5944 63.984 40.3435 65.5496C42.6115 66.8428 44.9483 67.5916 47.2164 67.8639C47.7662 67.9319 48.4535 68 49.0033 68C50.9277 68 52.8521 67.6597 54.5703 66.9109C59.3813 65.005 62.749 60.6486 63.505 55.6116C64.0548 53.2292 63.7799 50.8468 62.8865 48.3283ZM31.8899 51.8679C28.1786 47.2392 25.7731 42.8829 24.9483 39.2072C24.6047 37.6416 24.5359 36.2803 24.7421 35.0551C24.8796 33.966 25.292 33.013 25.8418 32.1962C27.1476 30.3584 29.3469 29.2012 31.8899 29.2012C34.4329 29.2012 36.7009 30.2903 37.938 32.1962C38.4878 33.013 38.9002 33.966 39.0377 35.0551C39.2439 36.2803 39.1751 37.7097 38.8315 39.2072C38.0067 42.8148 35.6012 47.1712 31.8899 51.8679ZM59.3126 55.0671C58.8315 58.6066 56.426 61.6697 53.0583 63.031C51.4088 63.7117 49.6219 63.9159 47.8349 63.7117C46.1167 63.5075 44.3985 62.963 42.6115 61.9419C40.1373 60.5806 37.6631 58.4705 34.7765 55.3393C39.3126 49.8258 42.0617 44.7888 43.0927 40.2963C43.5737 38.1862 43.6425 36.2803 43.4363 34.5105C43.1614 32.8088 42.5428 31.2432 41.5806 29.8819C39.45 26.8188 35.8762 25.049 31.8899 25.049C27.9036 25.049 24.3298 26.8869 22.1992 29.8819C21.237 31.2432 20.6184 32.8088 20.3435 34.5105C20.0686 36.2803 20.1373 38.2543 20.6872 40.2963C21.7181 44.7888 24.536 49.8939 29.0033 55.4074C26.1854 58.5385 23.6425 60.6486 21.1683 62.01C19.3813 63.031 17.6631 63.5756 15.9449 63.7798C14.0892 63.984 12.3023 63.7117 10.7215 63.0991C7.35382 61.7377 4.94832 58.6747 4.46722 55.1351C4.26104 53.4334 4.39849 51.7317 5.08578 49.8258C5.29196 49.1451 5.63561 48.4645 5.97925 47.6476C6.46035 46.5586 7.01018 45.4014 7.56 44.2442L7.62873 44.1081C12.371 33.966 17.4569 23.6196 22.749 13.5455L22.9552 13.1371C23.505 12.1161 24.0548 11.027 24.6047 10.006C25.1545 8.91692 25.7731 7.8959 26.5291 7.01101C27.9724 5.37738 29.8968 4.49249 32.0274 4.49249C34.1579 4.49249 36.0823 5.37738 37.5256 7.01101C38.2817 7.8959 38.9002 8.91692 39.45 10.006C39.9999 11.027 40.5497 12.1161 41.0995 13.1371L41.3057 13.5455C46.5291 23.6877 51.615 34.034 56.3573 44.1762V44.2442C56.9071 45.3333 57.3882 46.5586 57.938 47.6476C58.2817 48.4645 58.6253 49.1451 58.8315 49.8258C59.3813 51.5956 59.5875 53.2973 59.3126 55.0671Z" fill="#FF385C"/>
</g>
<defs>
<clipPath id="clip0_1_49">
<rect width="220" height="68" fill="white"/>
</clipPath>
</defs>
</svg>
